<svg width="614" height="140" viewBox="0 0 614 140" fill="none" xmlns="http://www.w3.org/2000/svg">
<path d="M59.95 99.91C37.88 99.91 20 82.02 20 59.96C20 37.9 37.89 20 59.95 20" stroke="#F2F2F2" stroke-width="40" stroke-miterlimit="10"/>
<path d="M133.9 99.9C155.964 99.9 173.85 82.0138 173.85 59.95C173.85 37.8862 155.964 20 133.9 20C111.836 20 93.95 37.8862 93.95 59.95C93.95 82.0138 111.836 99.9 133.9 99.9Z" stroke="#F2F2F2" stroke-width="40" stroke-miterlimit="10"/>
<path d="M207.98 20C230.05 20 247.93 37.89 247.93 59.95C247.93 82.01 230.04 99.9 207.98 99.9C230.05 99.9 247.93 117.79 247.93 139.85" stroke="#F2F2F2" stroke-width="40" stroke-miterlimit="10"/>
<path d="M417.27 20.07C439.34 20.07 457.22 37.96 457.22 60.02C457.22 82.08 439.33 99.97 417.27 99.97C439.34 99.97 457.22 117.86 457.22 139.92" stroke="#F2F2F2" stroke-width="40" stroke-miterlimit="10"/>
<path d="M340.63 99.9C362.694 99.9 380.58 82.0138 380.58 59.95C380.58 37.8862 362.694 20 340.63 20C318.566 20 300.68 37.8862 300.68 59.95C300.68 82.0138 318.566 99.9 340.63 99.9Z" stroke="#F2F2F2" stroke-width="40" stroke-miterlimit="10"/>
<path d="M551.55 99.97C573.614 99.97 591.5 82.0838 591.5 60.02C591.5 37.9562 573.614 20.07 551.55 20.07C529.486 20.07 511.6 37.9562 511.6 60.02C511.6 82.0838 529.486 99.97 551.55 99.97Z" stroke="#F2F2F2" stroke-width="40" stroke-miterlimit="10"/>
</svg>
