<svg width="83" height="23" viewBox="0 0 83 23" fill="none" xmlns="http://www.w3.org/2000/svg">
<path d="M64.7502 2.2088H68.8302V0.216797H72.6222V2.2088H76.7022V5.1368H72.6462C72.8622 7.0568 74.1582 9.0248 77.5662 9.8648L75.8622 12.7928C73.4382 12.1928 71.7822 10.9208 70.7982 9.3368C69.8142 11.0888 68.1582 12.4568 65.6382 13.1048L63.9102 10.2008C67.3422 9.2888 68.6142 7.1768 68.8062 5.1368H64.7502V2.2088ZM67.3662 21.9128V13.8488H82.1262V21.9128H67.3662ZM71.0622 18.9848H78.4542V16.7768H71.0622V18.9848ZM78.3582 13.0088V0.288796H82.1262V13.0088H78.3582Z" fill="#28F794"/>
<path d="M44.8772 1.9209H61.0292V3.9849C61.0292 6.7209 61.0292 9.8409 60.1412 14.6409L56.3732 14.2569C57.1652 10.3209 57.2612 7.3689 57.2612 4.9209H44.8772V1.9209ZM42.9092 19.7289V16.6809H49.5092V9.3609H53.2772V16.6809H62.6612V19.7289H42.9092Z" fill="#28F794"/>
<path d="M21.9326 16.8248H29.9006V14.0168H24.0926V6.28879H35.8766V4.51279H24.0686V1.56079H39.5966V9.19279H27.8126V11.0408H40.0766V14.0168H33.6686V16.8248H41.6846V19.8488H21.9326V16.8248Z" fill="#28F794"/>
<path d="M4.6283 2.08889H8.2763V5.20889C8.2763 8.85689 8.8523 12.1689 11.5643 13.9689V0.552893H15.0683V8.59289H16.2203V0.264893H19.7963V22.1049H16.2203V11.5929H15.0683V21.1929H11.5643V14.9289L9.8843 17.2329C8.1803 16.2969 7.1003 14.8089 6.4283 12.9849C5.6843 15.0729 4.5083 16.8249 2.7323 17.9049L0.404297 15.1449C3.8123 13.1049 4.6283 9.19289 4.6283 5.47289V2.08889Z" fill="#28F794"/>
</svg>
