<svg width="201" height="44" viewBox="0 0 201 44" fill="none" xmlns="http://www.w3.org/2000/svg">
<path d="M200.893 23.7012H190.814C191.158 25.1543 191.752 26.2871 192.596 27.0996C193.455 27.8965 194.424 28.2949 195.502 28.2949C197.721 28.2949 199.518 27.2715 200.893 25.2246V30.1699C198.627 34.2949 195.502 36.3574 191.518 36.3574C188.127 36.3574 185.439 34.9902 183.455 32.2559C181.471 29.5059 180.479 25.7559 180.479 21.0059C180.479 18.3809 180.971 15.9277 181.955 13.6465C182.939 11.3496 184.182 9.69336 185.682 8.67773C187.182 7.64648 188.893 7.13086 190.814 7.13086C191.986 7.13086 193.15 7.43555 194.307 8.04492C195.463 8.63867 196.525 9.54492 197.494 10.7637C198.479 11.9668 199.244 13.4668 199.791 15.2637C200.338 17.0605 200.65 18.5293 200.729 19.6699C200.822 20.8105 200.877 22.1543 200.893 23.7012ZM190.229 18.7559H194.846C194.799 17.3809 194.557 16.2949 194.119 15.498C193.682 14.6855 193.15 14.2793 192.525 14.2793C191.869 14.2793 191.322 14.6699 190.885 15.4512C190.447 16.2324 190.229 17.2324 190.229 18.4512V18.7559Z" fill="#F2F2F2"/>
<path d="M154.908 7.81055H164.799V9.91992C166.268 8.35742 167.814 7.57617 169.439 7.57617C171.861 7.57617 173.893 8.88867 175.533 11.5137C177.174 14.123 177.994 17.4277 177.994 21.4277C177.994 25.7715 177.111 29.3184 175.346 32.0684C173.596 34.8027 171.377 36.1699 168.689 36.1699C167.408 36.1699 166.111 35.7715 164.799 34.9746V43.8574H154.908V7.81055ZM164.799 20.1855V25.2715C165.393 25.7246 165.947 25.9512 166.463 25.9512C167.088 25.9512 167.58 25.6387 167.939 25.0137C168.299 24.373 168.479 23.498 168.479 22.3887C168.479 21.3887 168.299 20.5605 167.939 19.9043C167.58 19.2324 167.119 18.8965 166.557 18.8965C166.057 18.8965 165.635 19.0918 165.291 19.4824C164.963 19.873 164.799 20.1074 164.799 20.1855Z" fill="#F2F2F2"/>
<path d="M141.479 35.9824V33.873C140.869 34.5762 140.127 35.1387 139.252 35.5605C138.377 35.9668 137.557 36.1699 136.791 36.1699C135.26 36.1699 134.002 35.4902 133.018 34.1309C132.049 32.7559 131.564 30.9746 131.564 28.7871C131.564 26.2871 132.174 24.3027 133.393 22.834C134.627 21.3652 136.283 20.6309 138.361 20.6309C139.268 20.6309 140.291 20.8496 141.432 21.2871C141.369 18.5684 140.143 17.209 137.752 17.209C135.768 17.209 133.861 17.9434 132.033 19.4121V10.9277C134.611 8.69336 137.799 7.57617 141.596 7.57617C143.533 7.57617 145.166 7.91992 146.494 8.60742C147.838 9.29492 148.869 10.3105 149.588 11.6543C150.322 12.998 150.799 14.373 151.018 15.7793C151.252 17.1699 151.369 19.2949 151.369 22.1543V35.9824H141.479ZM141.479 29.748V25.8105C140.916 25.5137 140.393 25.3652 139.908 25.3652C139.299 25.3652 138.799 25.5918 138.408 26.0449C138.033 26.4824 137.846 27.0449 137.846 27.7324C137.846 28.5449 138.033 29.2168 138.408 29.748C138.799 30.2637 139.299 30.5215 139.908 30.5215C140.58 30.5215 141.104 30.2637 141.479 29.748Z" fill="#F2F2F2"/>
<path d="M128.166 22.9277V35.1621C126.338 35.959 124.275 36.3574 121.979 36.3574C118.213 36.3574 115.26 35.0449 113.119 32.4199C110.994 29.7793 109.932 26.0996 109.932 21.3809C109.932 17.8809 110.869 14.6387 112.744 11.6543C114.635 8.66992 117.604 7.17773 121.65 7.17773C123.588 7.17773 125.76 7.74023 128.166 8.86523V21.2402C126.197 19.834 124.408 19.1309 122.799 19.1309C121.908 19.1309 121.182 19.3574 120.619 19.8105C120.057 20.2637 119.775 20.8574 119.775 21.5918C119.775 23.4043 120.893 24.3105 123.127 24.3105C125.221 24.3105 126.9 23.8496 128.166 22.9277Z" fill="#F2F2F2"/>
<path d="M91.0176 25.3184C91.6738 26.6309 92.4863 27.6777 93.4551 28.459C94.4395 29.2246 95.377 29.6074 96.2676 29.6074C97.5488 29.6074 98.1895 28.9199 98.1895 27.5449C98.1895 26.998 98.0488 26.5215 97.7676 26.1152C97.4863 25.6934 97.0645 25.3652 96.502 25.1309L94.2988 24.123C92.752 23.4355 91.5645 22.3652 90.7363 20.9121C89.9082 19.459 89.4941 17.7168 89.4941 15.6855C89.4941 12.9824 90.3457 10.8887 92.0488 9.4043C93.752 7.91992 96.1504 7.17773 99.2441 7.17773C102.26 7.17773 104.994 7.98242 107.447 9.5918L105.08 16.7871C103.533 14.7402 102.049 13.7168 100.627 13.7168C100.127 13.7168 99.7207 13.873 99.4082 14.1855C99.0957 14.4824 98.9395 14.8809 98.9395 15.3809C98.9395 16.0996 99.1582 16.6699 99.5957 17.0918C100.033 17.5137 100.838 17.9355 102.01 18.3574C104.525 19.248 106.143 20.4824 106.861 22.0605C107.596 23.6387 107.963 25.3184 107.963 27.0996C107.963 29.9277 107.166 32.1777 105.572 33.8496C103.979 35.5215 101.838 36.3574 99.1504 36.3574C97.666 36.3574 95.9785 36.084 94.0879 35.5371C92.2129 34.9746 90.4551 34.209 88.8145 33.2402L91.0176 25.3184Z" fill="#F2F2F2"/>
<path d="M79.5098 35.9824H62.4238V0.216797H75.4316C78.4629 0.216797 80.6816 0.490234 82.0879 1.03711C83.5098 1.58398 84.6895 2.6543 85.627 4.24805C86.5801 5.8418 87.0566 7.7793 87.0566 10.0605C87.0566 12.0293 86.8066 13.5605 86.3066 14.6543C85.8223 15.748 85.0176 16.8262 83.8926 17.8887C85.2363 19.0137 86.2129 20.1777 86.8223 21.3809C87.4316 22.584 87.7363 24.2012 87.7363 26.2324C87.7363 29.1855 86.9863 31.5527 85.4863 33.334C83.9863 35.0996 81.9941 35.9824 79.5098 35.9824ZM73.4629 7.41211H73.1816V14.373H73.4629C74.6191 14.373 75.4473 14.1152 75.9473 13.5996C76.4473 13.084 76.6973 12.2246 76.6973 11.0215C76.6973 9.67773 76.4551 8.74023 75.9707 8.20898C75.502 7.67773 74.666 7.41211 73.4629 7.41211ZM73.3691 20.4199H73.1816V28.1074H73.5098C74.7598 28.1074 75.6426 27.834 76.1582 27.2871C76.6738 26.7402 76.9316 25.7949 76.9316 24.4512C76.9316 22.9512 76.6738 21.9043 76.1582 21.3105C75.6426 20.7168 74.7129 20.4199 73.3691 20.4199Z" fill="#F2F2F2"/>
<path d="M58.8613 23.7012H48.7832C49.127 25.1543 49.7207 26.2871 50.5645 27.0996C51.4238 27.8965 52.3926 28.2949 53.4707 28.2949C55.6895 28.2949 57.4863 27.2715 58.8613 25.2246V30.1699C56.5957 34.2949 53.4707 36.3574 49.4863 36.3574C46.0957 36.3574 43.4082 34.9902 41.4238 32.2559C39.4395 29.5059 38.4473 25.7559 38.4473 21.0059C38.4473 18.3809 38.9395 15.9277 39.9238 13.6465C40.9082 11.3496 42.1504 9.69336 43.6504 8.67773C45.1504 7.64648 46.8613 7.13086 48.7832 7.13086C49.9551 7.13086 51.1191 7.43555 52.2754 8.04492C53.4316 8.63867 54.4941 9.54492 55.4629 10.7637C56.4473 11.9668 57.2129 13.4668 57.7598 15.2637C58.3066 17.0605 58.6191 18.5293 58.6973 19.6699C58.791 20.8105 58.8457 22.1543 58.8613 23.7012ZM48.1973 18.7559H52.8145C52.7676 17.3809 52.5254 16.2949 52.0879 15.498C51.6504 14.6855 51.1191 14.2793 50.4941 14.2793C49.8379 14.2793 49.291 14.6699 48.8535 15.4512C48.416 16.2324 48.1973 17.2324 48.1973 18.4512V18.7559Z" fill="#F2F2F2"/>
<path d="M20.377 21.8262L16.791 35.9824H8.86914L0.267578 0.216797H10.8379L13.5566 11.8887L16.5801 0.216797H23.9863L27.1504 11.8887L29.8457 0.216797H40.2988L32.1426 35.9824H24.2207L20.377 21.8262Z" fill="#F2F2F2"/>
</svg>
